<svg xmlns="http://www.w3.org/2000/svg" xmlns:xlink="http://www.w3.org/1999/xlink">   
    <symbol height="50" width="80" viewBox="0 0 80 50" id="envelope">
        <title>Envelope</title>
        <g><polygon points="80,0 0,0 40,28"/><polygon points="80,45.1 80,4.9 51.3,25"/><polygon points="0,4.9 0,45.1 28.7,25"/><polygon points="42.3,31.3 40,32.9 37.7,31.3 32.2,27.4 0,50 80,50 47.8,27.4"/></g>
    </symbol>   

    <symbol height="60" width="85" viewBox="0 0 85 60" id="youtube">
        <title>Youtube Icon</title>
        <path d="M81.7,10c-1-3.6-3.8-6.4-7.3-7.3C69.5,0.8,23-0.1,9.5,2.7c-3.6,1-6.4,3.8-7.3,7.3C0,19.6-0.2,40.1,2.2,49.8c1,3.6,3.8,6.4,7.3,7.3c9.5,2.2,54.7,2.5,64.8,0c3.6-1,6.4-3.8,7.3-7.3C84,39.5,84.2,20.2,81.7,10z M34,42.3V17.5l21.7,12.4L34,42.3z"/>
    </symbol> 

    <symbol height="62" width="69" viewBox="0 0 69 62" id="X">
        <title>X Icon</title>
        <path d="M54.3,0h10.6L41.8,26.3L69,62H47.7L31,40.3L11.9,62H1.3l24.7-28.1L0,0h21.8l15.1,19.8L54.3,0z M50.6,55.7h5.9L18.6,6h-6.3L50.6,55.7z"/>
    </symbol> 
</svg>