<svg xmlns="http://www.w3.org/2000/svg" xmlns:xlink="http://www.w3.org/1999/xlink">   

    <symbol height="50" width="80" viewBox="0 0 80 50" id="envelope">
        <title>Envelope</title>
        <g><polygon points="80,0 0,0 40,28"/><polygon points="80,45.1 80,4.9 51.3,25"/><polygon points="0,4.9 0,45.1 28.7,25"/><polygon points="42.3,31.3 40,32.9 37.7,31.3 32.2,27.4 0,50 80,50 47.8,27.4"/></g>
    </symbol>   

    <symbol height="60" width="85" viewBox="0 0 85 60" id="youtube">
        <title>Youtube Icon</title>
        <path d="M81.7,10c-1-3.6-3.8-6.4-7.3-7.3C69.5,0.8,23-0.1,9.5,2.7c-3.6,1-6.4,3.8-7.3,7.3C0,19.6-0.2,40.1,2.2,49.8c1,3.6,3.8,6.4,7.3,7.3c9.5,2.2,54.7,2.5,64.8,0c3.6-1,6.4-3.8,7.3-7.3C84,39.5,84.2,20.2,81.7,10z M34,42.3V17.5l21.7,12.4L34,42.3z"/>
    </symbol> 

    <symbol height="65" width="80" viewBox="0 0 80 65" id="twitter">
        <title>Twitter Icon</title>
        <path d="M80,7.7c-2.9,1.3-6.1,2.2-9.4,2.6c3.4-2,6-5.2,7.2-9.1c-3.2,1.9-6.7,3.2-10.4,4C64.4,2,60.1,0,55.4,0C46.3,0,39,7.3,39,16.4c0,1.3,0.1,2.5,0.4,3.7C25.8,19.5,13.7,12.9,5.6,3c-1.4,2.4-2.2,5.2-2.2,8.3c0,5.7,2.9,10.7,7.3,13.7c-2.7-0.1-5.2-0.8-7.4-2.1c0,0.1,0,0.1,0,0.2c0,8,5.7,14.6,13.2,16.1c-1.4,0.4-2.8,0.6-4.3,0.6c-1.1,0-2.1-0.1-3.1-0.3c2.1,6.5,8.2,11.3,15.3,11.4c-5.6,4.4-12.7,7-20.4,7c-1.3,0-2.6-0.1-3.9-0.2C7.3,62.3,15.9,65,25.2,65c30.2,0,46.7-25,46.7-46.7c0-0.7,0-1.4,0-2.1C75,13.9,77.8,11,80,7.7z"/>
    </symbol> 

</svg>